REM DIRINDEX 1\2,1\3,1\4,1\5,1\6
REM DIRNAME folder01,folder02,folder03,folder04,folder05,folder06
TITLE ""
FILE "Disc6Track62.mp3" MP3
  TRACK 01 AUDIO
    TITLE "3:cjc030_12241"
    INDEX 01 00:00:00
  TRACK 02 AUDIO
    TITLE "0:"
    INDEX 01 00:01:15
  TRACK 03 AUDIO
    TITLE "4:cjc030_12242"
    INDEX 01 00:01:24
  TRACK 04 AUDIO
    TITLE "0:"
    INDEX 01 00:03:53
  TRACK 05 AUDIO
    TITLE "5:cjc030_12243"
    INDEX 01 00:03:61
  TRACK 06 AUDIO
    TITLE "0:"
    INDEX 01 00:05:07
  TRACK 07 AUDIO
    TITLE "6:cjc030_12244"
    INDEX 01 00:05:18
  TRACK 08 AUDIO
    TITLE "0:"
    INDEX 01 00:07:74
  TRACK 09 AUDIO
    TITLE "3:cjc030_12245"
    INDEX 01 00:08:42
  TRACK 10 AUDIO
    TITLE "0:"
    INDEX 01 00:09:61
  TRACK 11 AUDIO
    TITLE "4:cjc030_12246"
    INDEX 01 00:09:73
  TRACK 12 AUDIO
    TITLE "0:"
    INDEX 01 00:12:52
  TRACK 13 AUDIO
    TITLE "5:cjc030_12247"
    INDEX 01 00:12:58
  TRACK 14 AUDIO
    TITLE "0:"
    INDEX 01 00:14:04
  TRACK 15 AUDIO
    TITLE "6:cjc030_12248"
    INDEX 01 00:14:15
  TRACK 16 AUDIO
    TITLE "0:"
    INDEX 01 00:18:56
  TRACK 17 AUDIO
    TITLE "3:cjc030_12249"
    INDEX 01 00:19:30
  TRACK 18 AUDIO
    TITLE "0:"
    INDEX 01 00:20:41
  TRACK 19 AUDIO
    TITLE "4:cjc030_12250"
    INDEX 01 00:20:51
  TRACK 20 AUDIO
    TITLE "0:"
    INDEX 01 00:23:12
  TRACK 21 AUDIO
    TITLE "5:cjc030_12251"
    INDEX 01 00:23:20
  TRACK 22 AUDIO
    TITLE "0:"
    INDEX 01 00:24:35
  TRACK 23 AUDIO
    TITLE "6:cjc030_12252"
    INDEX 01 00:24:47
  TRACK 24 AUDIO
    TITLE "0:"
    INDEX 01 00:29:38
  TRACK 25 AUDIO
    TITLE "3:cjc030_12253"
    INDEX 01 00:30:10
  TRACK 26 AUDIO
    TITLE "0:"
    INDEX 01 00:31:24
  TRACK 27 AUDIO
    TITLE "4:cjc030_12254"
    INDEX 01 00:31:33
  TRACK 28 AUDIO
    TITLE "0:"
    INDEX 01 00:33:48
  TRACK 29 AUDIO
    TITLE "5:cjc030_12255"
    INDEX 01 00:33:56
  TRACK 30 AUDIO
    TITLE "0:"
    INDEX 01 00:34:69
  TRACK 31 AUDIO
    TITLE "6:cjc030_12256"
    INDEX 01 00:35:06
  TRACK 32 AUDIO
    TITLE "0:"
    INDEX 01 00:36:64
  TRACK 33 AUDIO
    TITLE "3:cjc030_12257"
    INDEX 01 00:37:40
  TRACK 34 AUDIO
    TITLE "0:"
    INDEX 01 00:38:41
  TRACK 35 AUDIO
    TITLE "4:cjc030_12258"
    INDEX 01 00:38:53
  TRACK 36 AUDIO
    TITLE "0:"
    INDEX 01 00:40:34
  TRACK 37 AUDIO
    TITLE "5:cjc030_12259"
    INDEX 01 00:40:44
  TRACK 38 AUDIO
    TITLE "0:"
    INDEX 01 00:41:47
  TRACK 39 AUDIO
    TITLE "6:cjc030_12260"
    INDEX 01 00:41:59
  TRACK 40 AUDIO
    TITLE "0:"
    INDEX 01 00:45:57
  TRACK 41 AUDIO
    TITLE "3:cjc030_12261"
    INDEX 01 00:46:31
  TRACK 42 AUDIO
    TITLE "0:"
    INDEX 01 00:47:46
  TRACK 43 AUDIO
    TITLE "4:cjc030_12262"
    INDEX 01 00:47:58
  TRACK 44 AUDIO
    TITLE "0:"
    INDEX 01 00:49:08
  TRACK 45 AUDIO
    TITLE "5:cjc030_12263"
    INDEX 01 00:49:16
  TRACK 46 AUDIO
    TITLE "0:"
    INDEX 01 00:50:35
  TRACK 47 AUDIO
    TITLE "6:cjc030_12264"
    INDEX 01 00:50:46
  TRACK 48 AUDIO
    TITLE "0:"
    INDEX 01 00:54:21
  TRACK 49 AUDIO
    TITLE "3:cjc030_12265"
    INDEX 01 00:54:70
  TRACK 50 AUDIO
    TITLE "0:"
    INDEX 01 00:56:08
  TRACK 51 AUDIO
    TITLE "4:cjc030_12266"
    INDEX 01 00:56:20
  TRACK 52 AUDIO
    TITLE "0:"
    INDEX 01 00:58:67
  TRACK 53 AUDIO
    TITLE "5:cjc030_12267"
    INDEX 01 00:59:00
  TRACK 54 AUDIO
    TITLE "0:"
    INDEX 01 01:00:19
  TRACK 55 AUDIO
    TITLE "6:cjc030_12268"
    INDEX 01 01:00:27
  TRACK 56 AUDIO
    TITLE "0:"
    INDEX 01 01:04:72
  TRACK 57 AUDIO
    TITLE "3:cjc030_12269"
    INDEX 01 01:05:46
  TRACK 58 AUDIO
    TITLE "0:"
    INDEX 01 01:07:00
  TRACK 59 AUDIO
    TITLE "4:cjc030_12270"
    INDEX 01 01:07:10
  TRACK 60 AUDIO
    TITLE "0:"
    INDEX 01 01:09:48
  TRACK 61 AUDIO
    TITLE "5:cjc030_12271"
    INDEX 01 01:09:56
  TRACK 62 AUDIO
    TITLE "0:"
    INDEX 01 01:11:13
